<svg id="Layer_1" data-name="Layer 1" xmlns="http://www.w3.org/2000/svg" xmlns:xlink="http://www.w3.org/1999/xlink" viewBox="0 0 65.2 45.35"><defs><style>.cls-1{fill:#ed1c24;}.cls-2{fill:url(#radial-gradient);}.cls-3{fill:url(#radial-gradient-2);}.cls-4{fill:url(#radial-gradient-3);}.cls-5{fill:url(#radial-gradient-4);}.cls-6{fill:url(#radial-gradient-5);}.cls-7{fill:url(#radial-gradient-6);}.cls-8{fill:#fff;}.cls-9{fill:url(#radial-gradient-7);}.cls-10{fill:url(#radial-gradient-8);}.cls-11{fill:url(#radial-gradient-9);}.cls-12{fill:url(#radial-gradient-10);}.cls-13{fill:url(#radial-gradient-11);}.cls-14{fill:url(#radial-gradient-12);}</style><radialGradient id="radial-gradient" cx="59.62" cy="31.43" r="5.62" gradientTransform="translate(-2.57) scale(0.97 1)" gradientUnits="userSpaceOnUse"><stop offset="0" stop-color="#fff"/><stop offset="1" stop-color="#524b48"/></radialGradient><radialGradient id="radial-gradient-2" cx="-252.43" cy="31.43" r="5.62" gradientTransform="matrix(-0.97, 0, 0, 1, -222.6, 0)" xlink:href="#radial-gradient"/><radialGradient id="radial-gradient-3" cx="60.3" cy="28.07" r="8.15" gradientTransform="translate(-0.37 0.6) scale(0.99)" xlink:href="#radial-gradient"/><radialGradient id="radial-gradient-4" cx="-158.39" cy="28.07" r="8.15" gradientTransform="matrix(-0.99, 0, 0, 0.99, -138.89, 0.6)" xlink:href="#radial-gradient"/><radialGradient id="radial-gradient-5" cx="64.08" cy="25.82" r="9.96" gradientTransform="translate(-1.21) scale(0.99 1)" xlink:href="#radial-gradient"/><radialGradient id="radial-gradient-6" cx="-229.13" cy="25.82" r="9.96" gradientTransform="matrix(-0.99, 0, 0, 1, -210.43, 0)" xlink:href="#radial-gradient"/><radialGradient id="radial-gradient-7" cx="39.02" cy="16.8" r="16.21" gradientTransform="matrix(1, 0, 0, 1, 0, 0)" xlink:href="#radial-gradient"/><radialGradient id="radial-gradient-8" cx="39.07" cy="36.63" r="6.47" gradientTransform="matrix(1, 0, 0, 1, 0, 0)" xlink:href="#radial-gradient"/><radialGradient id="radial-gradient-9" cx="39.04" cy="31.34" r="12.51" gradientTransform="matrix(1, 0, 0, 1, 0, 0)" xlink:href="#radial-gradient"/><radialGradient id="radial-gradient-10" cx="39.03" cy="28.52" r="13.83" gradientTransform="matrix(1, 0, 0, 1, 0, 0)" xlink:href="#radial-gradient"/><radialGradient id="radial-gradient-11" cx="39.05" cy="34.09" r="10.34" gradientTransform="matrix(1, 0, 0, 1, 0, 0)" xlink:href="#radial-gradient"/><radialGradient id="radial-gradient-12" cx="39.02" cy="25.7" r="14.51" gradientTransform="matrix(1, 0, 0, 1, 0, 0)" xlink:href="#radial-gradient"/></defs><title>logo-unibit</title><path d="M34.83,42.46v8.39h.63l5.35-4v3.82h2.84V42.46Z" transform="translate(-6.51 -6.48)"/><path class="cls-1" d="M41.72,43.59a2.48,2.48,0,1,1-2.48-2.48A2.48,2.48,0,0,1,41.72,43.59Z" transform="translate(-6.51 -6.48)"/><path d="M29.47,46.91h0a2.46,2.46,0,0,0-1.08-1,4.72,4.72,0,0,0-2.18-.41H25v-1h3.58v-2H22.11v8.22H26.2a4.78,4.78,0,0,0,1.86-.32,2.82,2.82,0,0,0,1.23-.91,2.19,2.19,0,0,0,.43-1.31A3.22,3.22,0,0,0,29.47,46.91Zm-2.62,1.17a.42.42,0,0,1-.26.45l-.69.13H25V47.5h1l.58.1C26.74,47.67,26.85,47.78,26.85,48.08Z" transform="translate(-6.51 -6.48)"/><path d="M55.87,42.46H48.76v2H51v6.21h2.87V44.47h2.24v-2Z" transform="translate(-6.51 -6.48)"/><rect x="15.59" y="44.86" width="34.02" height="0.5"/><rect x="15.59" width="34.02" height="34.02"/><path class="cls-2" d="M60.67,31.62l-9.53-.92a12,12,0,0,1-1,1.44Z" transform="translate(-6.51 -6.48)"/><path class="cls-3" d="M17.55,31.62l9.53-.92a13.41,13.41,0,0,0,1,1.44Z" transform="translate(-6.51 -6.48)"/><path class="cls-4" d="M67.46,28.7l-15.1-.85c-.16.45-.33.89-.53,1.32Z" transform="translate(-6.51 -6.48)"/><path class="cls-5" d="M10.77,28.7l15.1-.85c.16.45.33.89.53,1.32Z" transform="translate(-6.51 -6.48)"/><path class="cls-6" d="M71.71,26,52.9,25.18c0,.43-.12.85-.21,1.27Z" transform="translate(-6.51 -6.48)"/><path class="cls-7" d="M6.51,26l18.82-.82c.05.43.12.85.21,1.27Z" transform="translate(-6.51 -6.48)"/><path class="cls-8" d="M53.1,23.48a14,14,0,1,1-14-14A14,14,0,0,1,53.1,23.48Z" transform="translate(-6.51 -6.48)"/><path class="cls-9" d="M53.09,23.62c0-.05,0-.09,0-.14a14,14,0,0,0-28,0v.05L39.07,24Z" transform="translate(-6.51 -6.48)"/><path class="cls-10" d="M45.32,36.05l-6.13-.29H39l-6.13.29A14,14,0,0,0,39,37.47h.15A14,14,0,0,0,45.32,36.05Z" transform="translate(-6.51 -6.48)"/><path class="cls-11" d="M39.14,30.19h0l-12,.56a16,16,0,0,0,1,1.44l11,.27h.08l11-.27a14.13,14.13,0,0,0,1-1.44Z" transform="translate(-6.51 -6.48)"/><path class="cls-12" d="M39.14,27.38h0L25.78,28a11.88,11.88,0,0,0,.53,1.33l12.76.32h.09l12.76-.32A14.17,14.17,0,0,0,52.45,28Z" transform="translate(-6.51 -6.48)"/><path class="cls-13" d="M39.17,32.94h-.11l-9.89.46A13.68,13.68,0,0,0,31.12,35l7.94.2h.11L47.1,35a13.76,13.76,0,0,0,2-1.61Z" transform="translate(-6.51 -6.48)"/><path class="cls-14" d="M39.16,24.56h-.09l-14,.64c.05.43.12.86.21,1.28l13.74.34h.11l13.73-.34c.09-.42.16-.85.21-1.28Z" transform="translate(-6.51 -6.48)"/></svg>