<svg width="24" height="24" viewBox="0 0 24 24" fill="none" xmlns="http://www.w3.org/2000/svg">
<g clip-path="url(#clip0_372_653)">
<path d="M14.8211 4.03125L1.61591 17.2373C1.54948 17.304 1.50151 17.3881 1.47866 17.4785L0.0150014 23.3534C-0.028781 23.5302 0.0231868 23.7183 0.15225 23.8473C0.249903 23.945 0.382964 23.9991 0.51907 23.9991C0.560758 23.9991 0.603398 23.9939 0.644896 23.9834L6.51973 22.5196C6.61129 22.4967 6.69448 22.449 6.76091 22.3825L19.9672 9.17739L14.8211 4.03125Z" fill="black"/>
<path d="M23.2393 2.23034L21.7693 0.760398C20.7869 -0.222041 19.0746 -0.221089 18.0933 0.760398L16.2927 2.561L21.4387 7.70695L23.2393 5.90635C23.73 5.4158 24.0003 4.76287 24.0003 4.06844C24.0003 3.37402 23.73 2.72109 23.2393 2.23034Z" fill="black"/>
</g>
<defs>
<clipPath id="clip0_372_653">
<rect width="24" height="24" fill="white"/>
</clipPath>
</defs>
</svg>
