<svg width="23" height="24" viewBox="0 0 23 24" fill="none" xmlns="http://www.w3.org/2000/svg">
<path fill-rule="evenodd" clip-rule="evenodd" d="M15.4574 14.8992L20.4825 20.2792C20.6591 20.4685 20.7583 20.7251 20.7582 20.9926C20.7581 21.2601 20.6589 21.5166 20.482 21.7057C20.3053 21.8948 20.0656 22.001 19.8158 22.0009C19.5659 22.0008 19.3263 21.8945 19.1496 21.7052L14.1245 16.3252C12.6224 17.5709 10.7333 18.1571 8.84177 17.9646C6.9502 17.7721 5.19819 16.8153 3.94214 15.2888C2.6861 13.7624 2.02036 11.781 2.08039 9.74778C2.14042 7.71451 2.92168 5.78209 4.26525 4.34364C5.60881 2.90518 7.41376 2.06875 9.31291 2.00448C11.2121 1.94022 13.0627 2.65296 14.4885 3.99771C15.9142 5.34246 16.8079 7.21821 16.9877 9.24336C17.1675 11.2685 16.62 13.2909 15.4565 14.8992H15.4574ZM9.54961 16.0002C11.0359 16.0002 12.4615 15.3681 13.5124 14.2429C14.5634 13.1177 15.1538 11.5915 15.1538 10.0002C15.1538 8.40894 14.5634 6.88281 13.5124 5.75759C12.4615 4.63237 11.0359 4.00023 9.54961 4.00023C8.06331 4.00023 6.63786 4.63237 5.58686 5.75759C4.53587 6.88281 3.94542 8.40894 3.94542 10.0002C3.94542 11.5915 4.53587 13.1177 5.58686 14.2429C6.63786 15.3681 8.06331 16.0002 9.54961 16.0002Z" fill="#C4C4C4"/>
</svg>
