<svg width="24" height="15" viewBox="0 0 24 15" fill="none" xmlns="http://www.w3.org/2000/svg">
<path d="M23.8375 7.7545C24.0628 7.44589 24.053 7.02461 23.813 6.72579C20.1831 2.26316 16.2642 0 12.1592 0C5.19828 0 0.363346 6.48576 0.162503 6.76008C-0.0628328 7.0687 -0.0530356 7.48998 0.186996 7.78879C3.81197 12.2563 7.73086 14.5195 11.8359 14.5195C18.7968 14.5195 23.6318 8.03372 23.8375 7.7545ZM11.8359 12.8393C8.41667 12.8393 5.08561 10.9582 1.92111 7.25485C3.16045 5.79016 7.09894 1.68022 12.1592 1.68022C15.5784 1.68022 18.9095 3.56129 22.074 7.26464C20.8346 8.72933 16.8962 12.8393 11.8359 12.8393Z" fill="black"/>
<path fill-rule="evenodd" clip-rule="evenodd" d="M11.8359 12.8393C8.41667 12.8393 5.08561 10.9582 1.92111 7.25485C3.16045 5.79016 7.09894 1.68022 12.1592 1.68022C15.5784 1.68022 18.9095 3.56129 22.074 7.26464C20.8346 8.72933 16.8962 12.8393 11.8359 12.8393ZM7.73086 7.25974C7.73086 4.90841 9.64622 2.99305 11.9976 2.99305C14.3489 2.99305 16.2642 4.90841 16.2642 7.25974C16.2642 9.61108 14.3489 11.5264 11.9976 11.5264C9.64622 11.5264 7.73086 9.61108 7.73086 7.25974Z" fill="black"/>
<path d="M11.9976 9.84621C10.5721 9.84621 9.41108 8.68524 9.41108 7.25974C9.41108 5.83425 10.5721 4.67328 11.9976 4.67328C13.423 4.67328 14.584 5.83425 14.584 7.25974C14.584 8.68524 13.423 9.84621 11.9976 9.84621Z" fill="black"/>
</svg>
